# xmcd
#
# Track frame offsets: 
#        150
#        17121
#        33404
#        48299
#        64432
#        79744
#        97794
#        114833
#        132480
#        150229
#        160036
#        177824
#        195322
#        218356
#        238981
#
# Disc length: 3461 seconds
#
# Revision: 0
# Processed by: cddbd v1.5.2PL0 Copyright (c) Steve Scherf et al.
# Submitted via: ExactAudioCopy v0.90b3
#
DISCID=b20d830f
DTITLE=Made in Germany - Die größten Hits der 2000er -REX
DYEAR=2009
DGENRE=Pop
TTITLE0=Ich and Ich/Vom selben Stern -radio
TTITLE1=Rosenstolz/Ich bin ich (Wir sind wir) album
TTITLE2=Juli/Perfekte Welle -album
TTITLE3=Alex C. feat Yass/Du hast den schönsten Arsch der Welt -radio
TTITLE4=DJ Ötzi feat Nik P./Ein Stern (der Deinen Namen trägt) radio
TTITLE5=Deustchland sucht den Superstar/We have a dream -radio
TTITLE6=Yvonne Catterfield/Für Dich
TTITLE7=Jeanette/Rock my life -radio
TTITLE8=Oliver Pocher/Schwarz und Weiß -radio
TTITLE9=Schnappi/Schnappi -album
TTITLE10=Tokio Hotel/Durch den Monsun -radio
TTITLE11=Martin Kesici/Angel of Berlin
TTITLE12=Sarah Connor/From Sarah with love -full version
TTITLE13=Joana Zimmer/I believe -album
TTITLE14=Adoro/Über sieben Brücken
EXTD=
EXTT0=
EXTT1=
EXTT2=
EXTT3=
EXTT4=
EXTT5=
EXTT6=
EXTT7=
EXTT8=
EXTT9=
EXTT10=
EXTT11=
EXTT12=
EXTT13=
EXTT14=
PLAYORDER=
